<svg version="1.0" xmlns="http://www.w3.org/2000/svg" viewBox="0 0 128 128">
    <path fill="#659AD3" d="M115.4 30.7L67.1 2.9c-.8-.5-1.9-.7-3.1-.7-1.2 0-2.3.3-3.1.7l-48 27.9c-1.7 1-2.9 3.5-2.9 5.4v55.7c0 1.1.2 2.4 1 3.5l106.8-62c-.6-1.2-1.5-2.1-2.4-2.7z"></path><path fill="#03599C" d="M10.7 95.3c.5.8 1.2 1.5 1.9 1.9l48.2 27.9c.8.5 1.9.7 3.1.7 1.2 0 2.3-.3 3.1-.7l48-27.9c1.7-1 2.9-3.5 2.9-5.4V36.1c0-.9-.1-1.9-.6-2.8l-106.6 62z"></path><path fill="#fff" d="M85.3 76.1C81.1 83.5 73.1 88.5 64 88.5c-13.5 0-24.5-11-24.5-24.5s11-24.5 24.5-24.5c9.1 0 17.1 5 21.3 12.5l13-7.5c-6.8-11.9-19.6-20-34.3-20-21.8 0-39.5 17.7-39.5 39.5s17.7 39.5 39.5 39.5c14.6 0 27.4-8 34.2-19.8l-12.9-7.6z"></path>
    <path class="selo" d="M14.73 10H17l-5.5 8L8 14.5l1.34-1.34L11.21 15zM20 3v16a3 3 0 01-3 3H7a3 3 0 01-3-3V3h5.69l.52-1A2 2 0 0112 1a2 2 0 011.76 1l.52 1zm-2 2h-2.6l.6 1.1V7H8v-.9L8.6 5H6v14a1 1 0 001 1h10a1 1 0 001-1z"></path>
    <defs>
        <style type="text/css">
            .selo{
                fill: white;
                transform: translate(5%, 80%);
            }
        </style>
    </defs>
</svg>
